{
  "accessors": [
    {
      "bufferView": 2,
      "componentType": 5126,
      "count": 44457,
      "max": [
        4.25444221496582,
        5.386844635009766,
        2.768021583557129
      ],
      "min": [
        -4.137935161590576,
        -4.492359161376953,
        -3.2938544750213623
      ],
      "type": "VEC3"
    },
    {
      "bufferView": 2,
      "byteOffset": 533484,
      "componentType": 5126,
      "count": 44457,
      "max": [
        0.9999884366989136,
        0.9999768137931824,
        0.9997559189796448
      ],
      "min": [
        -0.9996545910835266,
        -0.998864471912384,
        -0.9993916153907776
      ],
      "type": "VEC3"
    },
    {
      "bufferView": 1,
      "componentType": 5126,
      "count": 44457,
      "max": [
        0.999946117401123,
        0.8961244821548462
      ],
      "min": [
        0.00011411309242248535,
        0.03913538157939911
      ],
      "type": "VEC2"
    },
    {
      "bufferView": 0,
      "componentType": 5125,
      "count": 254634,
      "type": "SCALAR"
    }
  ],
  "asset": {
    "extras": {
      "author": "alban (https://sketchfab.com/alban)",
      "license": "CC-BY-4.0 (http://creativecommons.org/licenses/by/4.0/)",
      "source": "https://sketchfab.com/3d-models/verrerie-corner-paris-291b62f797ca46a1be85ac3407b72431",
      "title": "Verrerie corner, Paris"
    },
    "generator": "Sketchfab-12.59.0",
    "version": "2.0"
  },
  "bufferViews": [
    {
      "buffer": 0,
      "byteLength": 1018536,
      "name": "floatBufferViews",
      "target": 34963
    },
    {
      "buffer": 0,
      "byteLength": 355656,
      "byteOffset": 1018536,
      "byteStride": 8,
      "name": "floatBufferViews",
      "target": 34962
    },
    {
      "buffer": 0,
      "byteLength": 1066968,
      "byteOffset": 1374192,
      "byteStride": 12,
      "name": "floatBufferViews",
      "target": 34962
    }
  ],
  "buffers": [
    {
      "byteLength": 2441160,
      "uri": "scene.bin"
    }
  ],
  "extensionsUsed": [
    "KHR_materials_unlit"
  ],
  "images": [
    {
      "uri": "textures/material0_baseColor.jpeg"
    }
  ],
  "materials": [
    {
      "doubleSided": true,
      "extensions": {
        "KHR_materials_unlit": {}
      },
      "name": "material0",
      "pbrMetallicRoughness": {
        "baseColorTexture": {
          "index": 0
        },
        "metallicFactor": 0.0
      }
    }
  ],
  "meshes": [
    {
      "name": "Model_material0_0",
      "primitives": [
        {
          "attributes": {
            "NORMAL": 1,
            "POSITION": 0,
            "TEXCOORD_0": 2
          },
          "indices": 3,
          "material": 0,
          "mode": 4
        }
      ]
    }
  ],
  "nodes": [
    {
      "children": [
        1
      ],
      "matrix": [
        -0.9322692155838013,
        0.3588862121105194,
        -0.045550365000963135,
        0.0,
        0.2977140545845032,
        0.6895709633827211,
        -0.6601955890655516,
        0.0,
        -0.20552487671375275,
        -0.629041016101837,
        -0.7497112154960633,
        0.0,
        0.29974547028541565,
        0.7158097624778746,
        0.3517436385154726,
        1.0
      ],
      "name": "Sketchfab_model"
    },
    {
      "children": [
        2
      ],
      "matrix": [
        1.0,
        0.0,
        0.0,
        0.0,
        0.0,
        -1.0,
        0.0,
        0.0,
        0.0,
        0.0,
        -1.0,
        0.0,
        0.0,
        0.0,
        0.0,
        1.0
      ],
      "name": "model.fbx"
    },
    {
      "children": [
        3
      ],
      "name": "RootNode"
    },
    {
      "children": [
        4
      ],
      "name": "Model"
    },
    {
      "mesh": 0,
      "name": "Model_material0_0"
    }
  ],
  "samplers": [
    {
      "magFilter": 9729,
      "minFilter": 9987,
      "wrapS": 10497,
      "wrapT": 10497
    }
  ],
  "scene": 0,
  "scenes": [
    {
      "name": "Sketchfab_Scene",
      "nodes": [
        0
      ]
    }
  ],
  "textures": [
    {
      "sampler": 0,
      "source": 0
    }
  ]
}
